<mxfile host="app.diagrams.net" agent="Mozilla/5.0 (Windows NT 10.0; Win64; x64) AppleWebKit/537.36 (KHTML, like Gecko) Chrome/130.0.0.0 Safari/537.36" version="24.8.3">
  <diagram name="Page-1" id="rgEr2CGhHv8i-J2RpMTW">
    <mxGraphModel dx="1134" dy="1126" grid="1" gridSize="10" guides="1" tooltips="1" connect="1" arrows="1" fold="1" page="1" pageScale="1" pageWidth="827" pageHeight="1169" math="0" shadow="0">
      <root>
        <mxCell id="0" />
        <mxCell id="1" parent="0" />
        <mxCell id="Ox_2l0NcBhr61O7NctMr-3" style="edgeStyle=orthogonalEdgeStyle;rounded=0;orthogonalLoop=1;jettySize=auto;html=1;" edge="1" parent="1" source="Ox_2l0NcBhr61O7NctMr-1" target="Ox_2l0NcBhr61O7NctMr-2">
          <mxGeometry relative="1" as="geometry" />
        </mxCell>
        <mxCell id="Ox_2l0NcBhr61O7NctMr-1" value="" style="dashed=0;outlineConnect=0;html=1;align=center;labelPosition=center;verticalLabelPosition=bottom;verticalAlign=top;shape=mxgraph.weblogos.arduino;fillColor=#36868D;strokeColor=none" vertex="1" parent="1">
          <mxGeometry x="366" y="50" width="67.4" height="32" as="geometry" />
        </mxCell>
        <mxCell id="Ox_2l0NcBhr61O7NctMr-2" value="" style="shape=image;html=1;verticalAlign=top;verticalLabelPosition=bottom;labelBackgroundColor=#ffffff;imageAspect=0;aspect=fixed;image=https://cdn2.iconfinder.com/data/icons/electronic-13/480/3-electronic-arduino-chipset-icon-2-128.png" vertex="1" parent="1">
          <mxGeometry x="334.7" y="190" width="130" height="130" as="geometry" />
        </mxCell>
        <mxCell id="Ox_2l0NcBhr61O7NctMr-12" value="PbHub" style="html=1;whiteSpace=wrap;strokeWidth=2;dashed=1;" vertex="1" parent="1">
          <mxGeometry x="361.03" y="350" width="77.35" height="70" as="geometry" />
        </mxCell>
        <mxCell id="Ox_2l0NcBhr61O7NctMr-14" value="" style="endArrow=classic;html=1;rounded=0;exitX=1;exitY=0.5;exitDx=0;exitDy=0;curved=1;strokeWidth=3;" edge="1" parent="1" source="Ox_2l0NcBhr61O7NctMr-12">
          <mxGeometry width="50" height="50" relative="1" as="geometry">
            <mxPoint x="579.7" y="320" as="sourcePoint" />
            <mxPoint x="600" y="250" as="targetPoint" />
            <Array as="points">
              <mxPoint x="464.7" y="385" />
              <mxPoint x="610" y="370" />
            </Array>
          </mxGeometry>
        </mxCell>
        <mxCell id="Ox_2l0NcBhr61O7NctMr-17" value="" style="strokeWidth=2;html=1;shape=mxgraph.flowchart.start_2;whiteSpace=wrap;direction=south;" vertex="1" parent="1">
          <mxGeometry x="540" y="190" width="40" height="40" as="geometry" />
        </mxCell>
        <mxCell id="Ox_2l0NcBhr61O7NctMr-18" value="" style="strokeWidth=2;html=1;shape=mxgraph.flowchart.start_2;whiteSpace=wrap;direction=south;" vertex="1" parent="1">
          <mxGeometry x="590" y="190" width="40" height="40" as="geometry" />
        </mxCell>
        <mxCell id="Ox_2l0NcBhr61O7NctMr-19" value="" style="strokeWidth=2;html=1;shape=mxgraph.flowchart.start_2;whiteSpace=wrap;direction=south;" vertex="1" parent="1">
          <mxGeometry x="643" y="190" width="40" height="40" as="geometry" />
        </mxCell>
        <mxCell id="Ox_2l0NcBhr61O7NctMr-20" value="Angle Segment" style="text;html=1;align=center;verticalAlign=middle;whiteSpace=wrap;rounded=0;" vertex="1" parent="1">
          <mxGeometry x="580" y="150" width="60" height="30" as="geometry" />
        </mxCell>
        <mxCell id="Ox_2l0NcBhr61O7NctMr-22" value="" style="endArrow=classic;html=1;rounded=0;exitX=1;exitY=0.5;exitDx=0;exitDy=0;entryX=0.5;entryY=0;entryDx=0;entryDy=0;curved=1;strokeWidth=3;" edge="1" parent="1" source="Ox_2l0NcBhr61O7NctMr-2" target="Ox_2l0NcBhr61O7NctMr-12">
          <mxGeometry width="50" height="50" relative="1" as="geometry">
            <mxPoint x="490" y="280" as="sourcePoint" />
            <mxPoint x="540" y="230" as="targetPoint" />
            <Array as="points">
              <mxPoint x="600" y="300" />
            </Array>
          </mxGeometry>
        </mxCell>
        <mxCell id="Ox_2l0NcBhr61O7NctMr-23" value="" style="html=1;verticalLabelPosition=bottom;align=center;labelBackgroundColor=#ffffff;verticalAlign=top;strokeWidth=2;strokeColor=#82b366;shadow=0;dashed=0;shape=mxgraph.ios7.icons.lightbulb;fillColor=#d5e8d4;" vertex="1" parent="1">
          <mxGeometry x="730" y="400" width="60" height="79.7" as="geometry" />
        </mxCell>
        <mxCell id="Ox_2l0NcBhr61O7NctMr-24" value="" style="endArrow=classic;html=1;rounded=0;exitX=0;exitY=0.5;exitDx=0;exitDy=0;curved=1;strokeWidth=4;entryX=0;entryY=0.5;entryDx=0;entryDy=0;" edge="1" parent="1" source="Ox_2l0NcBhr61O7NctMr-2" target="Ox_2l0NcBhr61O7NctMr-26">
          <mxGeometry width="50" height="50" relative="1" as="geometry">
            <mxPoint x="450" y="430" as="sourcePoint" />
            <mxPoint x="340" y="520" as="targetPoint" />
            <Array as="points">
              <mxPoint x="190" y="290" />
              <mxPoint x="180" y="410" />
            </Array>
          </mxGeometry>
        </mxCell>
        <mxCell id="Ox_2l0NcBhr61O7NctMr-26" value="PbHub" style="html=1;whiteSpace=wrap;strokeWidth=2;dashed=1;" vertex="1" parent="1">
          <mxGeometry x="366" y="460" width="77.35" height="70" as="geometry" />
        </mxCell>
        <mxCell id="Ox_2l0NcBhr61O7NctMr-27" style="edgeStyle=orthogonalEdgeStyle;rounded=0;orthogonalLoop=1;jettySize=auto;html=1;entryX=0.017;entryY=0.427;entryDx=0;entryDy=0;entryPerimeter=0;curved=1;strokeWidth=3;" edge="1" parent="1" source="Ox_2l0NcBhr61O7NctMr-26" target="Ox_2l0NcBhr61O7NctMr-23">
          <mxGeometry relative="1" as="geometry">
            <Array as="points">
              <mxPoint x="587" y="495" />
              <mxPoint x="587" y="434" />
            </Array>
          </mxGeometry>
        </mxCell>
        <mxCell id="Ox_2l0NcBhr61O7NctMr-30" value="" style="endArrow=none;html=1;rounded=0;strokeWidth=5;fillColor=#60a917;strokeColor=#2D7600;" edge="1" parent="1">
          <mxGeometry width="50" height="50" relative="1" as="geometry">
            <mxPoint x="723" y="408" as="sourcePoint" />
            <mxPoint x="710" y="398" as="targetPoint" />
          </mxGeometry>
        </mxCell>
        <mxCell id="Ox_2l0NcBhr61O7NctMr-31" value="" style="endArrow=none;html=1;rounded=0;strokeWidth=5;fillColor=#60a917;strokeColor=#2D7600;" edge="1" parent="1">
          <mxGeometry width="50" height="50" relative="1" as="geometry">
            <mxPoint x="804" y="398" as="sourcePoint" />
            <mxPoint x="794" y="408" as="targetPoint" />
          </mxGeometry>
        </mxCell>
        <mxCell id="Ox_2l0NcBhr61O7NctMr-32" value="" style="endArrow=none;html=1;rounded=0;strokeWidth=5;fillColor=#60a917;strokeColor=#2D7600;" edge="1" parent="1">
          <mxGeometry width="50" height="50" relative="1" as="geometry">
            <mxPoint x="758" y="390" as="sourcePoint" />
            <mxPoint x="758" y="370" as="targetPoint" />
          </mxGeometry>
        </mxCell>
        <mxCell id="Ox_2l0NcBhr61O7NctMr-35" value="Power Light" style="text;html=1;align=center;verticalAlign=middle;whiteSpace=wrap;rounded=0;" vertex="1" parent="1">
          <mxGeometry x="730" y="490" width="60" height="30" as="geometry" />
        </mxCell>
        <mxCell id="Ox_2l0NcBhr61O7NctMr-36" value="" style="endArrow=classic;html=1;rounded=0;exitX=0;exitY=0.25;exitDx=0;exitDy=0;strokeWidth=3;curved=1;" edge="1" parent="1" source="Ox_2l0NcBhr61O7NctMr-2" target="Ox_2l0NcBhr61O7NctMr-37">
          <mxGeometry width="50" height="50" relative="1" as="geometry">
            <mxPoint x="200" y="260" as="sourcePoint" />
            <mxPoint x="220" y="710" as="targetPoint" />
            <Array as="points">
              <mxPoint x="100" y="290" />
              <mxPoint x="70" y="430" />
              <mxPoint x="230" y="520" />
            </Array>
          </mxGeometry>
        </mxCell>
        <mxCell id="Ox_2l0NcBhr61O7NctMr-37" value="Apple I" style="ellipse;whiteSpace=wrap;html=1;" vertex="1" parent="1">
          <mxGeometry x="170" y="570" width="120" height="80" as="geometry" />
        </mxCell>
        <mxCell id="Ox_2l0NcBhr61O7NctMr-38" value="&lt;font style=&quot;font-size: 18px;&quot;&gt;M&lt;/font&gt;" style="text;html=1;align=center;verticalAlign=middle;whiteSpace=wrap;rounded=0;" vertex="1" parent="1">
          <mxGeometry x="369.7" y="240" width="60" height="30" as="geometry" />
        </mxCell>
        <mxCell id="Ox_2l0NcBhr61O7NctMr-39" value="" style="endArrow=classic;html=1;rounded=0;exitX=0.971;exitY=0.66;exitDx=0;exitDy=0;exitPerimeter=0;curved=1;strokeWidth=4;entryX=0.5;entryY=0;entryDx=0;entryDy=0;" edge="1" parent="1" source="Ox_2l0NcBhr61O7NctMr-26" target="Ox_2l0NcBhr61O7NctMr-47">
          <mxGeometry width="50" height="50" relative="1" as="geometry">
            <mxPoint x="570" y="620" as="sourcePoint" />
            <mxPoint x="610" y="610" as="targetPoint" />
            <Array as="points">
              <mxPoint x="660" y="490" />
            </Array>
          </mxGeometry>
        </mxCell>
        <mxCell id="Ox_2l0NcBhr61O7NctMr-45" value="" style="shape=wire;edgeStyle=orthogonalEdgeStyle;orthogonalLoop=1;jettySize=auto;html=1;sourcePerimeterSpacing=0;targetPerimeterSpacing=0;endArrow=none;curved=1;rounded=0;strokeColor=#0e8088;dashed=1;fillColor=#b0e3e6;dashPattern=12 12;fixDash=1;startSize=6;endSize=6;exitX=0.5;exitY=0;exitDx=0;exitDy=0;entryX=0.5;entryY=1;entryDx=0;entryDy=0;strokeWidth=4;" edge="1" parent="1" source="Ox_2l0NcBhr61O7NctMr-46" target="Ox_2l0NcBhr61O7NctMr-47">
          <mxGeometry width="100" relative="1" as="geometry">
            <mxPoint x="510" y="710" as="sourcePoint" />
            <mxPoint x="610" y="640" as="targetPoint" />
          </mxGeometry>
        </mxCell>
        <mxCell id="Ox_2l0NcBhr61O7NctMr-46" value="" style="shape=ellipse;fillColor=#fad7ac;strokeColor=#b46504;html=1;sketch=0;" vertex="1" parent="1">
          <mxGeometry x="500" y="800" width="20" height="20" as="geometry" />
        </mxCell>
        <mxCell id="Ox_2l0NcBhr61O7NctMr-47" value="Fillage x3" style="shape=ext;double=1;rounded=1;whiteSpace=wrap;html=1;" vertex="1" parent="1">
          <mxGeometry x="550" y="570" width="140" height="50" as="geometry" />
        </mxCell>
        <mxCell id="Ox_2l0NcBhr61O7NctMr-49" value="" style="shape=wire;edgeStyle=orthogonalEdgeStyle;orthogonalLoop=1;jettySize=auto;html=1;sourcePerimeterSpacing=0;targetPerimeterSpacing=0;endArrow=none;curved=1;rounded=0;strokeColor=#b85450;dashed=1;fillColor=#f8cecc;dashPattern=12 12;fixDash=1;startSize=6;endSize=6;entryX=0.5;entryY=1;entryDx=0;entryDy=0;strokeWidth=4;gradientColor=#ea6b66;exitX=0.5;exitY=0;exitDx=0;exitDy=0;" edge="1" parent="1" source="Ox_2l0NcBhr61O7NctMr-50" target="Ox_2l0NcBhr61O7NctMr-47">
          <mxGeometry width="100" relative="1" as="geometry">
            <mxPoint x="622" y="800" as="sourcePoint" />
            <mxPoint x="630" y="630" as="targetPoint" />
          </mxGeometry>
        </mxCell>
        <mxCell id="Ox_2l0NcBhr61O7NctMr-50" value="" style="shape=ellipse;fillColor=#fad7ac;strokeColor=#b46504;html=1;sketch=0;" vertex="1" parent="1">
          <mxGeometry x="613" y="800" width="20" height="20" as="geometry" />
        </mxCell>
        <mxCell id="Ox_2l0NcBhr61O7NctMr-51" value="" style="shape=wire;edgeStyle=orthogonalEdgeStyle;orthogonalLoop=1;jettySize=auto;html=1;sourcePerimeterSpacing=0;targetPerimeterSpacing=0;endArrow=none;curved=1;rounded=0;strokeColor=#996185;dashed=1;fillColor=#e6d0de;dashPattern=12 12;fixDash=1;startSize=6;endSize=6;strokeWidth=4;entryX=0.5;entryY=1;entryDx=0;entryDy=0;exitX=0.5;exitY=0;exitDx=0;exitDy=0;gradientColor=#d5739d;" edge="1" parent="1" source="Ox_2l0NcBhr61O7NctMr-52" target="Ox_2l0NcBhr61O7NctMr-47">
          <mxGeometry width="100" relative="1" as="geometry">
            <mxPoint x="700" y="800" as="sourcePoint" />
            <mxPoint x="630" y="630" as="targetPoint" />
          </mxGeometry>
        </mxCell>
        <mxCell id="Ox_2l0NcBhr61O7NctMr-52" value="" style="shape=ellipse;fillColor=#fad7ac;strokeColor=#b46504;html=1;sketch=0;" vertex="1" parent="1">
          <mxGeometry x="720" y="800" width="20" height="20" as="geometry" />
        </mxCell>
      </root>
    </mxGraphModel>
  </diagram>
</mxfile>
